<?xml version="1.0" encoding="UTF-8"?>
<svg width="20px" height="20px" viewBox="0 0 20 20" version="1.1" xmlns="http://www.w3.org/2000/svg" xmlns:xlink="http://www.w3.org/1999/xlink">
    <!-- Generator: Sketch 50 (54983) - http://www.bohemiancoding.com/sketch -->
    <title>icons/20px/icon_mail_grey</title>
    <desc>Created with Sketch.</desc>
    <defs></defs>
    <g id="icons/20px/icon_mail_grey" stroke="none" stroke-width="1" fill="none" fill-rule="evenodd">
        <path d="M2.42105263,3 C1.63374211,3 1,3.67284519 1,4.50778923 L1,15.4922108 C1,16.3271548 1.63374211,17 2.42105263,17 L17.5789474,17 C18.3662579,17 19,16.3271548 19,15.4922108 L19,4.50778923 C19,3.67284519 18.3662579,3 17.5789474,3 L2.42105263,3 Z M2.63569079,5.05468532 L10.0223224,8.94515753 L17.3644276,5.05468532 C17.6540145,4.89941393 18.0573803,5.16503704 18.0527382,5.50780709 L18.0527382,6.50779994 C18.0527382,6.69139363 17.9481937,6.87009736 17.7936803,6.95309676 L10.222075,10.9530682 C10.0897774,11.0243577 9.92509868,11.0243577 9.79279868,10.9530682 L2.20650921,6.95309676 C2.05200763,6.87008986 1.94745132,6.69137363 1.94745132,6.50779994 L1.94745132,5.50780709 C1.94745132,5.00488568 2.26664342,4.95311105 2.63576184,5.05468532 L2.63569079,5.05468532 Z" id="Fill-1" fill="#CCCCCC"></path>
    </g>
</svg>