<?xml version="1.0" encoding="UTF-8"?>
<svg width="20px" height="20px" viewBox="0 0 20 20" version="1.1" xmlns="http://www.w3.org/2000/svg" xmlns:xlink="http://www.w3.org/1999/xlink">
    <!-- Generator: Sketch 50 (54983) - http://www.bohemiancoding.com/sketch -->
    <title>icons/20px/icon_plane-from_grey</title>
    <desc>Created with Sketch.</desc>
    <defs></defs>
    <g id="icons/20px/icon_plane-from_grey" stroke="none" stroke-width="1" fill="none" fill-rule="evenodd">
        <path d="M8.31794737,9.06060606 C8.15234263,8.91477333 7.98674737,8.79355152 7.84426316,8.6969697 C6.58881053,7.75190303 5.33326316,6.80586667 4.07894737,5.86084848 C3.62932632,5.52184242 3.15564211,5.15820606 2.70507368,4.8182303 L2.63383632,4.76993455 C2.44417789,4.62410182 2.44417789,4.5275103 2.63383632,4.40629818 C2.82349474,4.26046545 3.01316263,4.11558303 3.22594158,3.96974061 C3.62838368,3.67902545 4.03082579,3.3883103 4.43421526,3.09662545 C4.52858263,3.02370909 4.62387368,3.02370909 4.74229947,3.07200485 C6.30583632,3.75098667 7.89253632,4.45362909 9.47914158,5.13261091 C10.42651,5.54453818 11.3498153,5.95646545 12.2970889,6.36936242 C12.41551,6.41765818 12.4867474,6.41765818 12.6051732,6.34474182 C13.4100574,5.83526303 14.2158889,5.30212364 14.9977521,4.79361455 C15.4714363,4.50289939 15.9210574,4.18755394 16.4188047,3.92049939 C16.8924889,3.67807515 17.4374153,3.58149333 17.9582784,3.65344485 C18.6688047,3.77465697 19.0712468,4.40534788 18.9056468,5.1079903 C18.7400421,5.71405091 18.3847837,6.17426909 17.8870363,6.51424485 C16.6556468,7.33809939 15.4001942,8.11463273 14.1688521,8.93848727 C14.0976147,8.98678303 14.0504311,9.08432 14.0504311,9.18091152 C14.0263774,9.54549333 14.0263774,9.88449939 14.0023237,10.2481358 C13.95514,11.5814691 13.8839026,12.8900752 13.8367189,14.2234085 C13.8126653,14.9023903 13.7895353,15.5813721 13.7654816,16.2357236 C13.7414279,16.6959418 13.7414279,17.1324994 13.7182979,17.5936873 C13.7182979,17.6666036 13.6470605,17.7631952 13.5998768,17.8114909 C12.9365295,18.1997576 12.2972453,18.5870545 11.6338979,18.9506909 C11.4914232,19.0236073 11.3729926,18.9753115 11.3498768,18.8048582 C11.1602184,17.8597915 10.9946137,16.8900945 10.8049505,15.9440097 C10.6624758,15.1684461 10.4968663,14.416543 10.3553295,13.6409794 C10.2369084,13.0349188 10.1184874,12.4042279 10.0000663,11.7981673 C10.0000663,11.7735467 9.97601263,11.7498715 9.97601263,11.7015758 C9.92882895,11.7261964 9.90477526,11.7261964 9.85759158,11.7498715 C8.88616,12.3805624 7.91567579,13.0102836 6.94419684,13.6409745 C6.89701316,13.6655952 6.84982947,13.7621867 6.84982947,13.8104824 C6.75546211,14.5623855 6.68422474,15.3133188 6.58892421,16.0652218 C6.56487053,16.2110545 6.56487053,16.3805673 6.54174053,16.52544 C6.51768684,16.5983564 6.47050316,16.6949479 6.39926579,16.7432436 C6.04400263,16.9856679 5.66467632,17.2034618 5.28629737,17.4458861 C5.09663895,17.5670982 4.97821316,17.5188024 4.95509737,17.2763782 C4.86073,16.1608388 4.78949263,15.0216388 4.69419211,13.9071661 C4.67013842,13.7613333 4.67013842,13.6164509 4.67013842,13.4706085 C4.67013842,13.374017 4.62295474,13.3247758 4.55171737,13.27648 C3.55717,12.6950497 2.53855947,12.1126497 1.54405947,11.5312194 C1.44969211,11.4829236 1.35440105,11.4346279 1.28315421,11.3617115 C1.14067947,11.26512 1.11754947,11.1439079 1.25910053,11.0227055 C1.63842684,10.7556509 2.01680579,10.4895661 2.41924789,10.2471418 C2.49048526,10.1988461 2.58485263,10.1988461 2.65609,10.2225212 C3.48503737,10.5132364 4.31398474,10.8039515 5.11877421,11.0956364 C5.23719526,11.1439321 5.33156263,11.120257 5.42685842,11.0473406 C6.35016368,10.44128 7.29753211,9.83521939 8.22183211,9.22915879 C8.19962816,9.1571903 8.24773553,9.10889455 8.31804921,9.06059879 L8.31794737,9.06060606 Z" id="Fill-2" fill="#CCCCCC"></path>
    </g>
</svg>