<?xml version="1.0" encoding="UTF-8"?>
<svg width="20px" height="20px" viewBox="0 0 20 20" version="1.1" xmlns="http://www.w3.org/2000/svg" xmlns:xlink="http://www.w3.org/1999/xlink">
    <!-- Generator: Sketch 50 (54983) - http://www.bohemiancoding.com/sketch -->
    <title>icons/20px/icon_delete_grey</title>
    <desc>Created with Sketch.</desc>
    <defs></defs>
    <g id="icons/20px/icon_delete_grey" stroke="none" stroke-width="1" fill="none" fill-rule="evenodd">
        <path d="M17,4.53957649 C17,4.69443142 16.9820127,4.84859613 16.9474195,5 L3.05258052,5 C3.0179891,4.84860144 3,4.69443142 3,4.53957649 C3.01937233,3.35604244 3.98448564,2.40682601 5.16960189,2.40682601 L7.24161598,2.40682601 C7.23884951,2.03489103 7.38551814,1.67679565 7.64842076,1.41271049 C7.91063264,1.14862533 8.26830701,1 8.64052214,1 L11.3683759,1 C12.1321643,1.00967888 12.7458163,1.63393181 12.7409812,2.39783557 L14.8129952,2.39783557 C16.0077994,2.3881567 16.9854309,3.34563619 16.999954,4.53961189 L17,4.53957649 Z M4.00047739,6 L16.9992844,6 L16.9992844,17.008333 C17.0240537,17.9213938 16.4034046,18.7269441 15.5138514,18.9362076 C15.3574526,18.9800574 15.1961007,19.0019813 15.0333394,18.9998594 L5.89359284,18.9998594 C5.37981839,18.9878362 4.89151617,18.7721282 4.53624564,18.4008204 C4.18099322,18.0288064 3.98850218,17.5309048 4.00053174,17.0174509 L4.00047739,6 Z M13,16.3570471 C13,16.7119958 13.2199169,17 13.4909519,17 L13.5250307,17 C13.7971289,16.9804736 14.0069313,16.6778273 13.9952082,16.3214862 L13.9952082,8.70802115 C14.0015973,8.62782699 14.0015973,8.5469366 13.9952082,8.4667353 C13.9254531,8.15711248 13.6932978,7.96117037 13.4488851,8.00649627 C13.2050041,8.05112594 13.0229009,8.32238508 13.0202428,8.64525398 L13.0202428,16.3570828 L13,16.3570471 Z M9,16.3574924 C9,16.7121953 9.20748585,17 9.4632003,17 L9.55965749,17 C9.81286405,16.9763074 10.0047624,16.673876 9.99020381,16.3219561 L9.99020381,8.70466554 C10.0032654,8.62801097 10.0032654,8.54856987 9.99020381,8.47260925 C9.93443998,8.18828321 9.74605136,7.99386828 9.53353688,8.00014779 C9.27681928,8.00990421 9.07335891,8.30397241 9.07737153,8.66006678 L9.07737153,16.3574567 L9,16.3574924 Z M6,16.3583456 C6,16.7120019 6.217284,16.9989574 6.4850741,16.9989574 C6.62238336,17.0093787 6.75654105,16.9412888 6.85335115,16.812053 C6.95016125,16.6828172 6.99960336,16.5042513 6.99013515,16.3229142 L6.99013515,8.72810046 C7.00328828,8.65167207 7.00328828,8.57246538 6.99013515,8.49672891 C6.93331645,8.17156722 6.69656673,7.95826713 6.44666252,8.00689642 C6.19623305,8.05553282 6.01683537,8.35012956 6.03367074,8.68363329 L6.03367074,16.3583101 L6,16.3583456 Z" id="Fill-1" fill="#CCCCCC"></path>
    </g>
</svg>