<?xml version="1.0" encoding="UTF-8"?>
<svg width="32px" height="32px" viewBox="0 0 32 32" version="1.1" xmlns="http://www.w3.org/2000/svg" xmlns:xlink="http://www.w3.org/1999/xlink">
    <!-- Generator: Sketch 50 (54983) - http://www.bohemiancoding.com/sketch -->
    <title>icons/30px/icon_search_white</title>
    <desc>Created with Sketch.</desc>
    <defs></defs>
    <g id="icons/30px/icon_search_white" stroke="none" stroke-width="1" fill="none" fill-rule="evenodd">
        <path d="M29.705625,26.654404 L24.141525,21.097504 L23.615355,20.570164 C23.021205,19.970164 22.048545,19.970164 21.454425,20.570164 L21.224736,20.79985 L19.853646,19.42876 C23.158446,15.46546 22.952046,9.54526 19.233726,5.82796 C15.296226,1.890454 8.89062599,1.890454 4.95312599,5.82796 C1.01562467,9.76546 1.01562467,16.17106 4.95312599,20.10856 C5.24726699,20.402701 5.55546599,20.6734 5.87421599,20.9242 C5.89296599,20.939434 5.91171599,20.954668 5.93163899,20.968732 C9.65013899,23.836312 14.924739,23.756632 18.555036,20.728498 L19.926126,22.099588 L19.722219,22.303495 C19.122219,22.897645 19.122219,23.870305 19.722219,24.464425 L20.249559,24.990595 L25.806462,30.5546956 C25.937712,30.6847726 26.086539,30.7867276 26.244732,30.8593756 C26.290434,30.8804692 26.336139,30.8980486 26.383014,30.9144526 C26.40645,30.9226558 26.429889,30.9296869 26.453328,30.936718 C26.596296,30.978907 26.74278,31 26.889258,31 C27.280668,31 27.672078,30.851173 27.972078,30.55468 L29.704098,28.82266 C30.299418,28.22266 30.299418,27.25468 29.705268,26.65468 L29.705625,26.654404 Z M6.69592499,18.364504 C3.72052499,15.389104 3.72052499,10.546804 6.69592499,7.571404 C9.67132499,4.596004 14.513625,4.596004 17.489025,7.571404 C20.312085,10.394464 20.456205,14.895604 17.923785,17.890804 L17.016765,18.797824 C14.021445,21.331414 9.51916499,21.186094 6.69616499,18.364234 L6.69592499,18.364504 Z" id="Page-1" fill="#FFFFFF"></path>
    </g>
</svg>