<?xml version="1.0" encoding="UTF-8"?>
<svg width="20px" height="20px" viewBox="0 0 20 20" version="1.1" xmlns="http://www.w3.org/2000/svg" xmlns:xlink="http://www.w3.org/1999/xlink">
    <!-- Generator: Sketch 50 (54983) - http://www.bohemiancoding.com/sketch -->
    <title>icons/20px/icon_logout_grey</title>
    <desc>Created with Sketch.</desc>
    <defs></defs>
    <g id="icons/20px/icon_logout_grey" stroke="none" stroke-width="1" fill="none" fill-rule="evenodd">
        <path d="M9.16645779,16.3473209 C8.96303692,16.7213513 8.64695847,16.9663372 8.21607222,16.9816523 L8.21607222,16.9827443 C7.69220524,17.0111794 7.16615444,17.0046194 6.64337938,16.9619667 C5.32003502,16.8329109 4.2132537,15.7370372 4.030624,14.4224261 C4.02406132,14.3743024 4.01093874,14.3283683 4,14.2824341 L4,5.70904773 C4.02406132,5.58655478 4.0459332,5.46187516 4.07218115,5.33938501 L4.07327586,5.34047975 C4.38169971,3.99960895 5.56065938,3.03934823 6.93661162,3.00656212 C7.33031679,2.99781263 7.72404995,2.99781263 8.11778312,3.00656212 L8.1166884,3.00656212 C8.76522961,3.01749829 9.28691275,3.5402674 9.29564807,4.18885005 C9.30330547,4.83631278 8.79364738,5.37332186 8.14729,5.39955635 C7.79731741,5.41268199 7.44734482,5.39955635 7.09737223,5.4039325 C6.64022403,5.40721111 6.39742705,5.65329174 6.39742705,6.11044382 L6.39742705,13.8755168 C6.39742705,14.3414379 6.64131315,14.5864238 7.10501563,14.5896996 C7.47030302,14.5896996 7.83559042,14.5787607 8.19866598,14.5984491 C9.05063926,14.6476647 9.57778198,15.5958917 9.16655018,16.3472565 L9.16645779,16.3473209 Z M17.6598726,11.0220274 C16.4459157,12.2480489 15.2253793,13.4675187 13.9994393,14.6825367 C13.5226086,15.1550095 12.7789029,15.1320508 12.3086237,14.6562882 C11.8514755,14.1936708 11.8536593,13.4477658 12.3140917,12.9884242 C12.7887385,12.5006363 13.2743325,12.0237958 13.7577146,11.5447713 L13.7566227,11.5447713 C13.8003693,11.5152414 13.8484891,11.4922744 13.8977065,11.4758701 C13.8900491,11.453995 13.8747371,11.4343093 13.8561465,11.4211865 L13.6888148,11.4211865 C12.0603476,11.4211865 10.4318271,11.412437 8.8023575,11.412437 C8.21395558,11.412437 7.71525864,11.0252753 7.5905844,10.4871742 C7.41341148,9.71940244 7.97664617,9.01725887 8.78049122,9.01507499 C10.3947328,9.01179358 12.0066786,9.01507499 13.623272,9.01507499 L13.8846567,9.01507499 C13.8299742,8.96039134 13.7993502,8.91226771 13.763261,8.87726973 C13.2568926,8.36543119 12.7483405,7.8546846 12.2452479,7.34172613 L12.2441532,7.34172613 C11.8996401,6.99720597 11.8012278,6.47881581 11.995891,6.0325775 C12.1905626,5.58855107 12.6313012,5.30198757 13.1158033,5.30635532 C13.4220433,5.30416864 13.7151244,5.42447491 13.9305955,5.64102005 C15.1740901,6.88563239 16.4164928,8.13133667 17.6576636,9.37824488 C17.8774912,9.59588755 17.9999928,9.89226729 17.9999928,10.2006975 C18.0010875,10.5091278 17.8775024,10.8055187 17.6598754,11.0231502 L17.6598726,11.0220274 Z" id="Combined-Shape" fill="#CCCCCC"></path>
    </g>
</svg>