<?xml version="1.0" encoding="UTF-8"?>
<svg width="20px" height="20px" viewBox="0 0 20 20" version="1.1" xmlns="http://www.w3.org/2000/svg" xmlns:xlink="http://www.w3.org/1999/xlink">
    <!-- Generator: Sketch 50 (54983) - http://www.bohemiancoding.com/sketch -->
    <title>icon_invoice</title>
    <desc>Created with Sketch.</desc>
    <defs></defs>
    <g id="icon_invoice" stroke="none" stroke-width="1" fill="none" fill-rule="evenodd">
        <path d="M15.9999738,1 L3.40004097,1 L3.45029095,1.02374862 C2.07855426,1.14249171 1,2.2683282 1,3.65547549 L1,8.12458545 L5.79997441,8.12458545 L5.79997441,19.4051793 C5.79997441,19.6025968 5.89972364,19.7866391 6.063973,19.8964717 C6.22822237,20.007051 6.43821741,20.0285729 6.62347722,19.9558432 L9.39997441,18.8567192 L12.1764716,19.9565842 C12.3189713,20.0144719 12.4787164,20.0144719 12.6219668,19.9565842 L15.4,18.8567192 L18.1764972,19.9565842 C18.2484968,19.9847862 18.3257457,19.9988871 18.4000032,19.9988871 C18.518503,19.9988871 18.6355091,19.964748 18.7360014,19.8964717 C18.9017503,19.7866334 19,19.6025778 19,19.4051793 L19,3.96857727 C19,2.33214549 17.6545096,1 16.000016,1 L15.9999738,1 Z M5.80002817,4.56229272 L5.80004737,6.93715454 L2.20004737,6.93715454 L2.20004737,3.65547549 C2.20004737,2.84654056 2.86605342,2.1875069 3.68354666,2.1875069 L4.31729688,2.1875069 C5.13404132,2.1875069 5.80004737,2.84654056 5.80004737,3.65547549 L5.80002817,4.56229272 Z M15.9999738,15.2491709 L11.1999994,15.2491709 C10.8684939,15.2491709 10.6000026,14.9834904 10.6000026,14.6554554 C10.6000026,14.3274205 10.8684939,14.06174 11.1999994,14.06174 L15.9999738,14.06174 C16.3314792,14.06174 16.5999706,14.3274205 16.5999706,14.6554554 C16.5999706,14.9834904 16.3314792,15.2491709 15.9999738,15.2491709 Z M15.9999738,12.8743091 L11.1999994,12.8743091 C10.8684939,12.8743091 10.6000026,12.6086285 10.6000026,12.2805936 C10.6000026,11.9525587 10.8684939,11.6868782 11.1999994,11.6868782 L15.9999738,11.6868782 C16.3314792,11.6868782 16.5999706,11.9525587 16.5999706,12.2805936 C16.5999706,12.6086285 16.3314792,12.8743091 15.9999738,12.8743091 Z M15.9999738,10.4994473 L8.80001217,10.4994473 C8.46850674,10.4994473 8.20001537,10.2337667 8.20001537,9.90573181 C8.20001537,9.5776969 8.46850674,9.31201636 8.80001217,9.31201636 L15.9999738,9.31201636 C16.3314792,9.31201636 16.5999706,9.5776969 16.5999706,9.90573181 C16.5999706,10.2337667 16.3314792,10.4994473 15.9999738,10.4994473 Z M15.9999738,5.74972363 L8.80001217,5.74972363 C8.46850674,5.74972363 8.20001537,5.48404309 8.20001537,5.15600818 C8.20001537,4.82797327 8.46850674,4.56229272 8.80001217,4.56229272 L15.9999738,4.56229272 C16.3314792,4.56229272 16.5999706,4.82797327 16.5999706,5.15600818 C16.5999706,5.48404309 16.3314792,5.74972363 15.9999738,5.74972363 Z" id="Fill-1" fill="#CCCCCC"></path>
    </g>
</svg>