<?xml version="1.0" encoding="UTF-8"?>
<svg width="20px" height="20px" viewBox="0 0 20 20" version="1.1" xmlns="http://www.w3.org/2000/svg" xmlns:xlink="http://www.w3.org/1999/xlink">
    <!-- Generator: Sketch 50 (54983) - http://www.bohemiancoding.com/sketch -->
    <title>icons/20px/icon_edit_grey</title>
    <desc>Created with Sketch.</desc>
    <defs></defs>
    <g id="icons/20px/icon_edit_grey" stroke="none" stroke-width="1" fill="none" fill-rule="evenodd">
        <path d="M17.2792332,2.61069428 C16.4631326,1.79643524 15.1448164,1.79643524 14.3286154,2.61069428 L3.59365396,13.3001867 C3.55206447,13.3416824 3.53087699,13.362822 3.50968952,13.4043177 C3.50968952,13.4043177 3.50968952,13.4254573 3.48850204,13.4254573 C3.46731456,13.466953 3.44691255,13.4880927 3.44691255,13.5295883 L3.44691255,13.550728 L2.02423526,18.185741 C1.9614583,18.4151365 2.02423526,18.6453338 2.17097667,18.8120941 C2.2965306,18.9373647 2.44327863,19 2.61041602,19 C2.67319299,19 2.73596995,19 2.79874692,18.9788603 L7.42314926,17.5593939 L7.44433673,17.5593939 C7.48592622,17.5382542 7.52830117,17.5382542 7.54870318,17.5178982 C7.54870318,17.5178982 7.56989066,17.5178982 7.56989066,17.4967586 C7.61148015,17.4756189 7.6538551,17.4552629 7.67425711,17.4129836 L18.3879246,6.72349113 C19.2040251,5.90923209 19.2040251,4.59389057 18.3879246,3.77953131 L17.2792332,2.61069428 Z M3.57275978,17.4130718 L4.34727686,14.9287048 L6.08383837,16.6613478 L3.57275978,17.4130718 Z M17.509246,5.80519534 L16.2537067,7.05790155 L13.9521525,4.76154074 L15.2076918,3.50883453 C15.5427701,3.17451229 16.0653758,3.17451229 16.4004541,3.50883453 L17.5304395,4.63627012 C17.8443243,4.94866498 17.8443243,5.49201879 17.509252,5.80519534 L17.509246,5.80519534 Z" id="Fill-1" fill="#CCCCCC"></path>
    </g>
</svg>