<?xml version="1.0" encoding="UTF-8"?>
<svg width="20px" height="20px" viewBox="0 0 20 20" version="1.1" xmlns="http://www.w3.org/2000/svg" xmlns:xlink="http://www.w3.org/1999/xlink">
    <!-- Generator: Sketch 50 (54983) - http://www.bohemiancoding.com/sketch -->
    <title>icons/20px/icon_date_grey</title>
    <desc>Created with Sketch.</desc>
    <defs></defs>
    <g id="icons/20px/icon_date_grey" stroke="none" stroke-width="1" fill="none" fill-rule="evenodd">
        <path d="M16.4554622,3.545402 L14.3906622,3.545402 L14.3898802,2.513362 C14.3898802,1.942262 13.9273802,1.480542 13.3570602,1.480542 C12.7867402,1.480542 12.3242402,1.942262 12.3242402,2.513362 L12.3242402,3.546182 L8.1952402,3.5454 L8.1952402,2.51336 C8.1952402,1.94226 7.7327402,1.48054 7.1624202,1.48054 C6.5921002,1.48054 6.1296002,1.94226 6.1296002,2.51336 L6.1296002,3.54618 L4.0648002,3.5454 C2.9249602,3.5454 2,4.4704 2,5.6102 L2,15.9352 C2,17.07504 2.9250002,18 4.0648002,18 L16.4546002,18 C17.5944402,18 18.5194002,17.075 18.5194002,15.9352 L18.5201822,5.611 C18.5201822,4.4696 17.5951822,3.5454 16.4553822,3.5454 L16.4554622,3.545402 Z M16.4554622,15.936002 L4.0648622,15.936002 L4.0648622,7.158602 L16.4546622,7.158602 L16.4554622,15.936002 Z" id="Page-1" fill="#CCCCCC"></path>
    </g>
</svg>