<?xml version="1.0" encoding="UTF-8"?>
<svg width="20px" height="20px" viewBox="0 0 20 20" version="1.1" xmlns="http://www.w3.org/2000/svg" xmlns:xlink="http://www.w3.org/1999/xlink">
    <!-- Generator: Sketch 50 (54983) - http://www.bohemiancoding.com/sketch -->
    <title>icons/20px/icon_passenger_grey</title>
    <desc>Created with Sketch.</desc>
    <defs></defs>
    <g id="icons/20px/icon_passenger_grey" stroke="none" stroke-width="1" fill="none" fill-rule="evenodd">
        <path d="M11.733718,17.4298471 C11.733718,17.4298471 9.49661805,17.2880491 8.75012805,17.2400041 C6.30206805,17.0841451 6.05480805,16.8415741 5.65052805,14.2564141 C5.47240305,13.1150041 5.00717805,9.67781406 5.00717805,9.67781406 C4.88413005,8.64188406 6.38177805,8.39462406 6.53294805,9.45633006 C6.53294805,9.45633006 6.95951805,12.7470301 7.14113805,13.8369301 C7.38606105,15.3099901 7.59347805,15.5642701 9.08411805,15.6591901 L11.821618,15.8326261 C12.899758,15.9005941 12.791938,17.4966961 11.733727,17.4298861 L11.733718,17.4298471 Z M7.58291805,6.07334706 C8.57783805,6.07334706 9.38291805,5.26709706 9.38291805,4.27334706 C9.38291805,3.27842706 8.57783805,2.47100706 7.58291805,2.47100706 C6.58799805,2.47100706 5.77940805,3.27842706 5.77940805,4.27334706 C5.78058105,5.26709706 6.58799805,6.07334706 7.58291805,6.07334706 Z M16.518418,17.2423471 L14.140678,12.9286471 C13.907476,12.6134071 13.541848,12.4013071 13.116448,12.3802171 C12.678178,12.3380311 12.238708,12.2958421 11.800438,12.2536561 C11.513329,12.2255311 11.227378,12.1985791 10.940278,12.1704541 C10.832464,12.1599061 10.717621,12.1376401 10.610968,12.1517041 L10.206658,10.4138041 C10.19494,10.3552111 10.183222,10.2966181 10.171501,10.2380221 L10.128142,10.0880221 L9.63245205,7.76419206 C9.57854505,7.51106706 9.45081105,7.29193206 9.27620205,7.12435206 L9.27385905,7.11614706 C9.21995205,7.06809906 9.16253205,7.02474006 9.10159305,6.98489706 C9.07932705,6.96966306 9.05589105,6.95794506 9.03245205,6.94505406 C9.00901305,6.93216606 8.98675005,6.91575906 8.96331105,6.90403806 C8.96331105,6.90403806 8.94924705,6.89466306 8.95042005,6.89817906 C8.94221805,6.89466306 8.93401305,6.89232006 8.92581105,6.88880406 C8.88245205,6.86888406 8.83792005,6.85247706 8.79221805,6.83724006 C8.76409305,6.82786506 8.73596805,6.81966306 8.70784305,6.81263106 C8.67034305,6.80325606 8.63401605,6.79388106 8.59534305,6.78802206 C8.43831105,6.75989706 8.27425305,6.75755406 8.10784305,6.79036506 C8.04925005,6.80208306 7.99182705,6.82200606 7.93557705,6.84075606 L7.93088805,6.84192906 C7.92620205,6.84309906 7.92268605,6.84544506 7.91799705,6.84544506 C7.90276305,6.85130406 7.88752905,6.85364706 7.87229505,6.86067906 C7.23128505,7.03060206 6.82463505,7.67748906 6.96410505,8.33253906 L7.70003505,11.7849391 C7.78441005,12.3767491 8.00120505,13.7736091 8.22620505,14.1732091 C8.24026905,14.1978181 8.25667305,14.2224271 8.27776905,14.2482091 C8.57893905,14.6091391 8.88361905,14.8868791 9.38167905,14.9103091 L12.897379,15.0814021 L15.007939,18.6754021 C15.200125,18.8781361 15.454429,18.9859621 15.712249,18.9988321 C15.986467,19.0117231 16.265389,18.9179731 16.479829,18.7140661 C16.895839,18.3191461 16.914589,17.6605561 16.518502,17.2422061 L16.518418,17.2423471 Z" id="Page-1" fill="#CCCCCC"></path>
    </g>
</svg>