<?xml version="1.0" encoding="UTF-8"?>
<svg width="139px" height="37px" viewBox="0 0 139 37" version="1.1" xmlns="http://www.w3.org/2000/svg" xmlns:xlink="http://www.w3.org/1999/xlink">
    <!-- Generator: Sketch 50 (54983) - http://www.bohemiancoding.com/sketch -->
    <title>logo</title>
    <desc>Created with Sketch.</desc>
    <defs></defs>
    <g id="Symbols" stroke="none" stroke-width="1" fill="none" fill-rule="evenodd">
        <g id="Logo" transform="translate(-6.000000, -13.000000)" fill="#FFFFFF">
            <g id="logo" transform="translate(6.000000, 13.000000)">
                <g id="Group-2">
                    <g id="Page-1">
                        <path d="M33.8801368,29.3540714 C33.5771708,29.6074829 33.2031181,29.7436436 32.823507,29.7530986 C32.5972149,29.7587725 32.3709276,29.7190596 32.1558721,29.6339598 C31.8940511,29.5299499 31.675242,29.3559644 31.4957059,29.1498328 C29.7508545,31.4437717 27.2822092,33.136328 24.4301228,33.8832875 C26.0197593,32.7637439 27.3363573,30.8329002 28.2191004,28.391351 L31.1197334,28.391351 C31.1085112,28.3402902 31.0860716,28.2930152 31.0804605,28.2419543 L30.9289751,27.0770479 L28.6361316,27.0770479 C29.0830999,25.467713 29.3505417,23.6843829 29.4010511,21.78554 L30.2388863,21.78554 L30.0668284,20.4712321 L29.4010607,20.4712321 C29.3767491,19.5899757 29.3019424,18.7370892 29.18973,17.9125241 C28.7745516,18.0297748 28.3444262,18.1451326 27.9180399,18.2585975 C28.0096799,18.9772356 28.0788755,19.7109784 28.1013151,20.471203 L23.5212775,20.471203 L23.2575845,21.785511 L28.101229,21.785511 C28.0451227,23.6898729 27.7608573,25.4883078 27.2839807,27.0770189 L21.8078904,27.0770189 L21.8078904,24.172257 L21.1421227,24.6431479 C20.9494972,24.7812016 20.7306834,24.8568464 20.5081448,24.9041214 L20.5081448,27.0770286 L15.0320545,27.0770286 C14.7982842,26.2997627 14.611265,25.4695817 14.4747266,24.6034302 C14.3325915,24.6620531 14.186722,24.7206809 14.0464588,24.7811967 C13.7678044,24.9003356 13.5190536,25.0213673 13.2535317,25.140511 C13.3694833,25.8061856 13.5078745,26.4586435 13.6780603,27.078907 L9.52440899,27.078907 L9.52440899,27.0770189 C9.15037546,27.3077344 8.79319438,27.53845 8.46212982,27.7729514 C8.20030396,27.9582801 7.9627801,28.1417206 7.73838392,28.3232586 C10.2948822,33.1775998 15.3464055,36.4929014 21.1547572,36.4929014 C26.6006854,36.4929014 31.373473,33.5710983 34.0550241,29.2043697 L33.8801368,29.3540714 Z M10.274731,28.3914817 L14.0992329,28.3914817 C14.9819759,30.8329341 16.2966589,32.7637294 17.8882105,33.8834183 C14.725742,33.0570135 12.0291099,31.0732063 10.2749225,28.3914817 L10.274731,28.3914817 Z M20.5082884,33.6016563 C18.4436233,33.255583 16.6407937,31.2774595 15.4961194,28.3914817 L20.5082884,28.3914817 L20.5082884,33.6016563 Z M21.808034,28.3914817 L26.820203,28.3914817 C25.6775396,31.2754262 23.8728427,33.2555056 21.808034,33.6016563 L21.808034,28.3914817 Z" id="Fill-1"></path>
                        <path d="M45.5159908,7.34711111 C43.3914803,5.93442857 38.9478423,6.93106206 34.0180205,8.85434365 L25.3552842,0.300788095 L22.4377988,0.401016905 L29.4004479,10.8416994 C26.5353391,12.1730487 23.6983815,13.6556875 21.2112082,15.0267352 L17.6167519,12.2827034 L16.1243521,12.4585771 L19.8366319,17.1863675 L20.1564312,23.2152009 L21.3888627,22.3452731 L22.2809417,17.8822033 C25.0412972,17.2430104 28.1400423,16.4506398 31.1586425,15.5296366 L32.781936,28.0128509 L35.0336059,26.1330826 L35.9125668,13.9258207 C40.8687205,12.0592691 44.850113,9.82778262 45.5160722,7.346535 L45.5159908,7.34711111 Z" id="Fill-2"></path>
                        <path d="M24.8564133,7.13893651 L24.1401361,6.06286746 C23.1732744,5.86808381 22.1783093,5.76218103 21.1553365,5.76218103 C13.5679018,5.76218103 7.2807871,11.4206572 6.15856682,18.7789033 C7.0917715,18.0659294 7.99883573,17.4400017 8.82915426,16.8953588 C9.02552366,16.3053048 9.24807182,15.7266279 9.52484466,15.1763207 L11.6175653,15.1763207 C12.3712339,14.7375806 13.1454892,14.2988406 13.9608704,13.8620128 L10.2729117,13.8620128 C12.0271469,11.180385 14.7239227,9.19851437 17.8842846,8.37007627 C17.0371136,8.96768262 16.2721941,9.79975167 15.6045592,10.8115287 C15.7092886,10.7774897 15.814018,10.7415578 15.9262305,10.7283169 L17.4186302,10.5524433 L17.446681,10.5524433 C18.349963,9.52178532 19.3860538,8.83906944 20.5062633,8.65185754 L20.5062633,12.3074036 L21.3646852,12.9636377 C21.5142986,12.8823189 21.6564337,12.8104551 21.8060471,12.7291363 L21.8060471,8.65186722 C23.0684013,8.86367278 24.2316516,9.69196563 25.2078971,10.9571347 L26.8929032,10.1477228 L24.8564133,7.13893651 Z" id="Fill-3"></path>
                        <path d="M18.1499023,17.8333016 L15.8103315,14.8548071 C14.220695,15.6774357 12.447788,16.6532421 10.5927732,17.821973 C8.52250661,19.1382175 6.34935384,20.6567786 4.35592867,22.5932865 C3.3666125,23.5690929 2.41468866,24.6527143 1.64416714,25.9594698 C1.26265055,26.6138159 0.931624287,27.3305175 0.703493756,28.1058952 C0.641776428,28.2950049 0.60063633,28.4992484 0.553880343,28.6978373 C0.529568283,28.7961732 0.51647699,28.9001879 0.497774117,29.0004167 L0.443539853,29.3672929 L0.441669805,29.815488 L0.454761098,30.4754983 C0.510867325,31.2697571 0.722193278,32.1150912 1.13924845,32.8526587 C1.5469438,33.5958904 2.15848683,34.1689031 2.76627635,34.5357745 C4.00431082,35.2695174 5.16569391,35.388661 6.16439336,35.4491769 C8.17108027,35.5115857 9.71212235,35.1806365 10.7893389,34.9631618 C11.1240995,34.891298 11.4083794,34.8251082 11.6477608,34.7683782 C8.5189494,34.6019595 6.57191636,33.8435988 5.52486186,33.268698 C5.22563503,33.1155154 4.94886219,32.9434228 4.7113479,32.7429845 C4.60287938,32.6578847 4.54303401,32.6011498 4.54303401,32.6011498 L4.56360645,32.5992569 C4.50002195,32.5368481 4.42334328,32.4801181 4.36910902,32.4139283 C3.89782437,31.8446917 3.88474457,31.3265306 4.05304889,30.5852354 C4.08109961,30.5095906 4.10728315,30.4396197 4.12785559,30.3677559 L4.2550246,29.9384708 L4.25876374,29.9252348 C4.26998594,29.8571568 4.24754154,30.0008796 4.2494135,29.9819696 L4.25689178,29.9668406 L4.26811398,29.9328017 L4.29242556,29.8685048 C4.30925886,29.8268989 4.32048107,29.7834049 4.34104872,29.738018 C4.38219361,29.6510252 4.41211629,29.5621444 4.46261142,29.4732587 C4.63840837,29.1158374 4.88152897,28.7527325 5.17888862,28.3934134 C5.77920945,27.6709991 6.58898905,26.9788428 7.47920082,26.3472023 C9.2726946,25.0820333 11.3672824,24.0475991 13.3756449,23.1814475 C15.1223636,22.4306634 16.8092847,21.8236166 18.3317987,21.3130079 L18.1499023,17.8333016 Z" id="Fill-4"></path>
                    </g>
                    <path d="M57.188,18 L57.188,9.6 L60.764,9.6 C61.724,9.6 62.48,9.876 62.96,10.344 C63.308,10.704 63.5,11.148 63.5,11.688 L63.5,11.712 C63.5,12.804 62.828,13.368 62.168,13.656 C63.164,13.956 63.968,14.532 63.968,15.684 L63.968,15.708 C63.968,17.148 62.756,18 60.92,18 L57.188,18 Z M62.54,11.844 L62.54,11.82 C62.54,10.992 61.88,10.452 60.68,10.452 L58.124,10.452 L58.124,13.344 L60.608,13.344 C61.748,13.344 62.54,12.828 62.54,11.844 Z M63.008,15.624 C63.008,14.712 62.24,14.184 60.776,14.184 L58.124,14.184 L58.124,17.148 L60.944,17.148 C62.216,17.148 63.008,16.584 63.008,15.648 L63.008,15.624 Z M67.856,18.132 C66.356,18.132 65.48,17.124 65.48,15.648 L65.48,11.796 L66.404,11.796 L66.404,15.42 C66.404,16.572 67.028,17.292 68.12,17.292 C69.176,17.292 69.98,16.512 69.98,15.348 L69.98,11.796 L70.892,11.796 L70.892,18 L69.98,18 L69.98,16.92 C69.56,17.592 68.924,18.132 67.856,18.132 Z M74.9,18.12 C74.012,18.12 73.028,17.772 72.332,17.208 L72.8,16.548 C73.472,17.052 74.216,17.34 74.948,17.34 C75.692,17.34 76.232,16.956 76.232,16.356 L76.232,16.332 C76.232,15.708 75.5,15.468 74.684,15.24 C73.712,14.964 72.632,14.628 72.632,13.488 L72.632,13.464 C72.632,12.396 73.52,11.688 74.744,11.688 C75.5,11.688 76.34,11.952 76.976,12.372 L76.556,13.068 C75.98,12.696 75.32,12.468 74.72,12.468 C73.988,12.468 73.52,12.852 73.52,13.368 L73.52,13.392 C73.52,13.98 74.288,14.208 75.116,14.46 C76.076,14.748 77.108,15.12 77.108,16.236 L77.108,16.26 C77.108,17.436 76.136,18.12 74.9,18.12 Z M78.728,10.44 L78.728,9.42 L79.784,9.42 L79.784,10.44 L78.728,10.44 Z M78.788,18 L78.788,11.796 L79.712,11.796 L79.712,18 L78.788,18 Z M81.74,18 L81.74,11.796 L82.664,11.796 L82.664,12.876 C83.072,12.204 83.72,11.664 84.788,11.664 C86.288,11.664 87.164,12.672 87.164,14.148 L87.164,18 L86.24,18 L86.24,14.376 C86.24,13.224 85.616,12.504 84.524,12.504 C83.456,12.504 82.664,13.284 82.664,14.448 L82.664,18 L81.74,18 Z M91.724,18.144 C90.02,18.144 88.628,16.836 88.628,14.916 L88.628,14.892 C88.628,13.104 89.888,11.664 91.604,11.664 C93.44,11.664 94.496,13.128 94.496,14.94 C94.496,15.06 94.496,15.132 94.484,15.24 L89.564,15.24 C89.696,16.584 90.644,17.34 91.748,17.34 C92.6,17.34 93.2,16.992 93.704,16.464 L94.28,16.98 C93.656,17.676 92.9,18.144 91.724,18.144 Z M89.564,14.556 L93.56,14.556 C93.464,13.428 92.816,12.444 91.58,12.444 C90.5,12.444 89.684,13.344 89.564,14.556 Z M98.048,18.12 C97.16,18.12 96.176,17.772 95.48,17.208 L95.948,16.548 C96.62,17.052 97.364,17.34 98.096,17.34 C98.84,17.34 99.38,16.956 99.38,16.356 L99.38,16.332 C99.38,15.708 98.648,15.468 97.832,15.24 C96.86,14.964 95.78,14.628 95.78,13.488 L95.78,13.464 C95.78,12.396 96.668,11.688 97.892,11.688 C98.648,11.688 99.488,11.952 100.124,12.372 L99.704,13.068 C99.128,12.696 98.468,12.468 97.868,12.468 C97.136,12.468 96.668,12.852 96.668,13.368 L96.668,13.392 C96.668,13.98 97.436,14.208 98.264,14.46 C99.224,14.748 100.256,15.12 100.256,16.236 L100.256,16.26 C100.256,17.436 99.284,18.12 98.048,18.12 Z M103.784,18.12 C102.896,18.12 101.912,17.772 101.216,17.208 L101.684,16.548 C102.356,17.052 103.1,17.34 103.832,17.34 C104.576,17.34 105.116,16.956 105.116,16.356 L105.116,16.332 C105.116,15.708 104.384,15.468 103.568,15.24 C102.596,14.964 101.516,14.628 101.516,13.488 L101.516,13.464 C101.516,12.396 102.404,11.688 103.628,11.688 C104.384,11.688 105.224,11.952 105.86,12.372 L105.44,13.068 C104.864,12.696 104.204,12.468 103.604,12.468 C102.872,12.468 102.404,12.852 102.404,13.368 L102.404,13.392 C102.404,13.98 103.172,14.208 104,14.46 C104.96,14.748 105.992,15.12 105.992,16.236 L105.992,16.26 C105.992,17.436 105.02,18.12 103.784,18.12 Z M57.008,31 L57.008,22.6 L63.404,22.6 L63.404,24.28 L58.856,24.28 L58.856,26.068 L62.864,26.068 L62.864,27.748 L58.856,27.748 L58.856,31 L57.008,31 Z M64.652,31 L64.652,22.24 L66.476,22.24 L66.476,31 L64.652,31 Z M68.108,23.86 L68.108,22.24 L70.028,22.24 L70.028,23.86 L68.108,23.86 Z M68.156,31 L68.156,24.568 L69.98,24.568 L69.98,31 L68.156,31 Z M74.456,32.944 C73.412,32.944 72.428,32.704 71.612,32.272 L72.236,30.904 C72.896,31.276 73.556,31.492 74.408,31.492 C75.656,31.492 76.244,30.892 76.244,29.74 L76.244,29.428 C75.704,30.076 75.116,30.472 74.144,30.472 C72.644,30.472 71.288,29.38 71.288,27.472 L71.288,27.448 C71.288,25.528 72.668,24.448 74.144,24.448 C75.14,24.448 75.728,24.868 76.22,25.408 L76.22,24.568 L78.044,24.568 L78.044,29.548 C78.044,30.7 77.768,31.54 77.228,32.08 C76.628,32.68 75.704,32.944 74.456,32.944 Z M74.672,28.96 C75.56,28.96 76.244,28.348 76.244,27.472 L76.244,27.448 C76.244,26.572 75.56,25.96 74.672,25.96 C73.784,25.96 73.112,26.572 73.112,27.448 L73.112,27.472 C73.112,28.36 73.784,28.96 74.672,28.96 Z M81.728,31.108 C80.612,31.108 79.856,30.664 79.856,29.176 L79.856,26.128 L79.088,26.128 L79.088,24.568 L79.856,24.568 L79.856,22.924 L81.68,22.924 L81.68,24.568 L83.192,24.568 L83.192,26.128 L81.68,26.128 L81.68,28.876 C81.68,29.296 81.86,29.5 82.268,29.5 C82.604,29.5 82.904,29.416 83.168,29.272 L83.168,30.736 C82.784,30.964 82.34,31.108 81.728,31.108 Z M86.672,31.12 C85.772,31.12 84.764,30.82 83.912,30.148 L84.692,28.948 C85.388,29.452 86.12,29.716 86.72,29.716 C87.248,29.716 87.488,29.524 87.488,29.236 L87.488,29.212 C87.488,28.816 86.864,28.684 86.156,28.468 C85.256,28.204 84.236,27.784 84.236,26.536 L84.236,26.512 C84.236,25.204 85.292,24.472 86.588,24.472 C87.404,24.472 88.292,24.748 88.988,25.216 L88.292,26.476 C87.656,26.104 87.02,25.876 86.552,25.876 C86.108,25.876 85.88,26.068 85.88,26.32 L85.88,26.344 C85.88,26.704 86.492,26.872 87.188,27.112 C88.088,27.412 89.132,27.844 89.132,29.02 L89.132,29.044 C89.132,30.472 88.064,31.12 86.672,31.12 Z M93.992,31 L93.992,22.6 L100.388,22.6 L100.388,24.28 L95.84,24.28 L95.84,26.068 L99.848,26.068 L99.848,27.748 L95.84,27.748 L95.84,31 L93.992,31 Z M104.528,31.144 C102.536,31.144 101.06,29.668 101.06,27.82 L101.06,27.796 C101.06,25.948 102.548,24.448 104.552,24.448 C106.544,24.448 108.02,25.924 108.02,27.772 L108.02,27.796 C108.02,29.644 106.532,31.144 104.528,31.144 Z M104.552,29.572 C105.596,29.572 106.22,28.768 106.22,27.82 L106.22,27.796 C106.22,26.848 105.536,26.02 104.528,26.02 C103.484,26.02 102.86,26.824 102.86,27.772 L102.86,27.796 C102.86,28.744 103.544,29.572 104.552,29.572 Z M109.22,31 L109.22,24.568 L111.044,24.568 L111.044,25.864 C111.416,24.976 112.016,24.4 113.096,24.448 L113.096,26.356 L113,26.356 C111.788,26.356 111.044,27.088 111.044,28.624 L111.044,31 L109.22,31 Z M116.984,31.144 C115.052,31.144 113.624,29.788 113.624,27.82 L113.624,27.796 C113.624,25.96 114.932,24.448 116.804,24.448 C118.952,24.448 119.936,26.116 119.936,27.94 C119.936,28.084 119.924,28.252 119.912,28.42 L115.436,28.42 C115.616,29.248 116.192,29.68 117.008,29.68 C117.62,29.68 118.064,29.488 118.568,29.02 L119.612,29.944 C119.012,30.688 118.148,31.144 116.984,31.144 Z M115.412,27.28 L118.16,27.28 C118.052,26.464 117.572,25.912 116.804,25.912 C116.048,25.912 115.556,26.452 115.412,27.28 Z M122.828,31.048 L120.296,24.568 L122.228,24.568 L123.668,28.876 L125.12,24.568 L127.016,24.568 L124.484,31.048 L122.828,31.048 Z M130.64,31.144 C128.708,31.144 127.28,29.788 127.28,27.82 L127.28,27.796 C127.28,25.96 128.588,24.448 130.46,24.448 C132.608,24.448 133.592,26.116 133.592,27.94 C133.592,28.084 133.58,28.252 133.568,28.42 L129.092,28.42 C129.272,29.248 129.848,29.68 130.664,29.68 C131.276,29.68 131.72,29.488 132.224,29.02 L133.268,29.944 C132.668,30.688 131.804,31.144 130.64,31.144 Z M129.068,27.28 L131.816,27.28 C131.708,26.464 131.228,25.912 130.46,25.912 C129.704,25.912 129.212,26.452 129.068,27.28 Z M134.828,31 L134.828,24.568 L136.652,24.568 L136.652,25.864 C137.024,24.976 137.624,24.4 138.704,24.448 L138.704,26.356 L138.608,26.356 C137.396,26.356 136.652,27.088 136.652,28.624 L136.652,31 L134.828,31 Z" id="Business-Fligts-Fore"></path>
                </g>
            </g>
        </g>
    </g>
</svg>